<svg width="58" height="34" viewBox="0 0 58 34" fill="none" xmlns="http://www.w3.org/2000/svg">
<path d="M0.391906 14C0.79324 13.888 1.06857 13.51 1.21791 12.866L2.68791 5.81C2.71591 5.642 2.72991 5.52067 2.72991 5.446C2.72991 5.25 2.67857 5.082 2.57591 4.942C2.48257 4.802 2.36124 4.71333 2.21191 4.676H6.08991C6.90191 4.676 7.57391 4.87667 8.10591 5.278C8.64724 5.67933 8.91791 6.202 8.91791 6.846C8.91791 7.434 8.72191 7.95667 8.32991 8.414C7.93791 8.862 7.45724 9.13267 6.88791 9.226C7.39191 9.35667 7.78391 9.62267 8.06391 10.024C8.34391 10.416 8.48391 10.8593 8.48391 11.354C8.48391 12.1473 8.14324 12.7867 7.46191 13.272C6.78991 13.7573 5.87524 14 4.71791 14H0.391906ZM4.63391 12.838C5.17524 12.838 5.60457 12.698 5.92191 12.418C6.23924 12.1287 6.39791 11.7507 6.39791 11.284C6.39791 10.836 6.26257 10.4673 5.99191 10.178C5.73057 9.88867 5.37124 9.744 4.91391 9.744H3.89191L3.24791 12.838H4.63391ZM5.33391 8.596C5.77257 8.596 6.13657 8.45133 6.42591 8.162C6.71524 7.86333 6.85991 7.49467 6.85991 7.056C6.85991 6.72933 6.77124 6.44467 6.59391 6.202C6.41657 5.95933 6.11324 5.838 5.68391 5.838H4.71791L4.14391 8.596H5.33391ZM15.6572 14H8.95116C9.45516 13.8787 9.78182 13.4913 9.93116 12.838L11.4012 6.034C11.4665 5.73533 11.4992 5.53 11.4992 5.418C11.4898 5.00733 11.3218 4.76 10.9952 4.676H17.3092L16.8332 7.042C16.8145 6.61267 16.6745 6.32333 16.4132 6.174C16.1518 6.02467 15.8018 5.95 15.3632 5.95H13.4172L12.8572 8.61H14.4672C15.1018 8.62867 15.5265 8.47 15.7412 8.134L15.2792 10.36C15.2232 9.996 14.8685 9.81867 14.2152 9.828H12.6052L12.0032 12.74H14.0192C14.5792 12.74 14.9992 12.6747 15.2792 12.544C15.5592 12.404 15.8532 12.0867 16.1612 11.592L15.6572 14ZM21.5875 12.936C21.5595 13.0667 21.5455 13.1927 21.5455 13.314C21.5455 13.6687 21.6901 13.8973 21.9795 14H18.7035C19.1515 13.8973 19.4408 13.5613 19.5715 12.992L21.0695 5.908H19.8935C19.3335 5.908 18.9088 5.99667 18.6195 6.174C18.3395 6.35133 18.0968 6.65933 17.8915 7.098L18.4515 4.676H26.2915L25.7595 7.112C25.7221 6.64533 25.5961 6.328 25.3815 6.16C25.1668 5.992 24.7841 5.908 24.2335 5.908H23.0995L21.5875 12.936ZM32.1097 7.35C31.8857 6.83667 31.573 6.44933 31.1717 6.188C30.7797 5.91733 30.3737 5.782 29.9537 5.782C29.571 5.782 29.263 5.88 29.0297 6.076C28.8057 6.272 28.6937 6.552 28.6937 6.916C28.6937 7.20533 28.8197 7.49 29.0717 7.77C29.333 8.04067 29.7577 8.37667 30.3457 8.778C31.447 9.52467 31.9977 10.3553 31.9977 11.27C31.9977 12.138 31.671 12.8473 31.0177 13.398C30.3643 13.9487 29.4777 14.224 28.3577 14.224C27.8163 14.224 27.2657 14.1447 26.7057 13.986C26.155 13.818 25.7257 13.622 25.4177 13.398L25.9917 10.752C26.197 11.48 26.5283 12.012 26.9857 12.348C27.4523 12.684 27.9657 12.852 28.5257 12.852C28.955 12.852 29.291 12.7447 29.5337 12.53C29.7763 12.306 29.8977 12.0167 29.8977 11.662C29.8977 11.382 29.781 11.116 29.5477 10.864C29.3143 10.612 28.899 10.2807 28.3017 9.87C27.2283 9.15133 26.6917 8.316 26.6917 7.364C26.6917 6.54267 27.0043 5.852 27.6297 5.292C28.2643 4.732 29.0857 4.452 30.0937 4.452C30.5323 4.452 30.971 4.51733 31.4097 4.648C31.8483 4.76933 32.2357 4.93267 32.5717 5.138L32.1097 7.35Z" fill="#C79A3C"/>
<path d="M48.6302 11.088C48.1355 12.0493 47.4635 12.81 46.6142 13.37C45.7742 13.93 44.8735 14.21 43.9122 14.21C42.8669 14.21 42.0362 13.8833 41.4202 13.23C40.8135 12.5673 40.5102 11.676 40.5102 10.556C40.5102 9.51067 40.7529 8.512 41.2382 7.56C41.7329 6.608 42.4002 5.852 43.2402 5.292C44.0895 4.732 44.9949 4.452 45.9562 4.452C47.0202 4.452 47.8555 4.78333 48.4622 5.446C49.0782 6.10867 49.3862 6.99067 49.3862 8.092C49.3862 9.11867 49.1342 10.1173 48.6302 11.088ZM44.1642 12.908C44.6962 12.908 45.1955 12.6747 45.6622 12.208C46.1289 11.7413 46.5022 11.116 46.7822 10.332C47.0715 9.548 47.2162 8.75 47.2162 7.938C47.2162 7.294 47.0902 6.77133 46.8382 6.37C46.5955 5.95933 46.2222 5.754 45.7182 5.754C45.1955 5.754 44.7009 5.992 44.2342 6.468C43.7675 6.944 43.3942 7.58333 43.1142 8.386C42.8342 9.18867 42.6942 9.97733 42.6942 10.752C42.6942 11.396 42.8155 11.9187 43.0582 12.32C43.3102 12.712 43.6789 12.908 44.1642 12.908ZM55.7232 10.374C55.6765 10.01 55.3265 9.828 54.6732 9.828H52.9792L52.3492 12.866C52.3118 13.0433 52.2932 13.174 52.2932 13.258C52.2932 13.6593 52.4518 13.9067 52.7692 14H49.3112C49.8152 13.8787 50.1418 13.4913 50.2912 12.838L51.8172 5.782C51.8452 5.66067 51.8592 5.53467 51.8592 5.404C51.8592 5.02133 51.6818 4.77867 51.3272 4.676H57.6692L57.1932 7.042C57.1465 6.60333 56.9972 6.314 56.7452 6.174C56.4932 6.02467 56.1572 5.95 55.7372 5.95H53.7912L53.2452 8.61H54.9392C55.5645 8.61 55.9798 8.45133 56.1852 8.134L55.7232 10.374Z" fill="#C79A3C"/>
<path d="M6.41751 30H0.0195078C0.178174 29.9813 0.336841 29.8787 0.495508 29.692C0.654175 29.5053 0.761508 29.272 0.817508 28.992L2.35751 21.782C2.38551 21.6513 2.39951 21.5253 2.39951 21.404C2.39951 21.0213 2.22684 20.7787 1.88151 20.676H5.25551C4.80751 20.816 4.52284 21.166 4.40151 21.726L2.90351 28.726H4.73751C5.36284 28.726 5.83884 28.6233 6.16551 28.418C6.49217 28.2033 6.76284 27.858 6.97751 27.382L6.41751 30ZM14.1366 30H7.43065C7.93465 29.8787 8.26132 29.4913 8.41065 28.838L9.88065 22.034C9.94598 21.7353 9.97865 21.53 9.97865 21.418C9.96932 21.0073 9.80132 20.76 9.47465 20.676H15.7886L15.3126 23.042C15.294 22.6127 15.154 22.3233 14.8926 22.174C14.6313 22.0247 14.2813 21.95 13.8426 21.95H11.8966L11.3366 24.61H12.9466C13.5813 24.6287 14.006 24.47 14.2206 24.134L13.7586 26.36C13.7026 25.996 13.348 25.8187 12.6946 25.828H11.0846L10.4826 28.74H12.4986C13.0586 28.74 13.4786 28.6747 13.7586 28.544C14.0386 28.404 14.3326 28.0867 14.6406 27.592L14.1366 30ZM22.4502 29.538C22.0956 29.7527 21.6476 29.9207 21.1062 30.042C20.5742 30.1727 20.0329 30.238 19.4822 30.238C18.3436 30.238 17.4522 29.9207 16.8082 29.286C16.1736 28.6513 15.8562 27.76 15.8562 26.612C15.8562 25.5853 16.1316 24.5913 16.6822 23.63C17.2422 22.6593 17.9889 21.8893 18.9222 21.32C19.8556 20.7507 20.8729 20.466 21.9742 20.466C22.3662 20.466 22.7629 20.5173 23.1642 20.62C23.5656 20.7133 23.8782 20.844 24.1022 21.012L23.5982 23.378C23.3836 22.314 22.7256 21.782 21.6242 21.782C21.0082 21.782 20.4156 22.0153 19.8462 22.482C19.2862 22.9393 18.8429 23.5413 18.5162 24.288C18.1896 25.0347 18.0262 25.8 18.0262 26.584C18.0262 27.312 18.1896 27.8953 18.5162 28.334C18.8429 28.7727 19.3049 28.992 19.9022 28.992C20.1076 28.992 20.3409 28.9407 20.6022 28.838L20.9942 26.836C21.0129 26.6773 21.0222 26.5747 21.0222 26.528C21.0222 26.1267 20.8542 25.8747 20.5182 25.772H23.8502C23.3929 25.912 23.1176 26.2387 23.0242 26.752L22.4502 29.538ZM30.5156 30H23.8096C24.3136 29.8787 24.6402 29.4913 24.7896 28.838L26.2596 22.034C26.3249 21.7353 26.3576 21.53 26.3576 21.418C26.3482 21.0073 26.1802 20.76 25.8536 20.676H32.1676L31.6916 23.042C31.6729 22.6127 31.5329 22.3233 31.2716 22.174C31.0102 22.0247 30.6602 21.95 30.2216 21.95H28.2756L27.7156 24.61H29.3256C29.9602 24.6287 30.3849 24.47 30.5996 24.134L30.1376 26.36C30.0816 25.996 29.7269 25.8187 29.0736 25.828H27.4636L26.8616 28.74H28.8776C29.4376 28.74 29.8576 28.6747 30.1376 28.544C30.4176 28.404 30.7116 28.0867 31.0196 27.592L30.5156 30ZM39.5119 30.056H38.1259L38.0699 29.846C37.8832 29.202 37.6639 28.628 37.4119 28.124L35.1439 23.812L34.0239 29.16V29.3C34.0332 29.6733 34.2105 29.9067 34.5559 30H31.6159C31.8025 29.9813 31.9752 29.8927 32.1339 29.734C32.3019 29.566 32.4185 29.3373 32.4839 29.048C33.5012 24.4187 34.0099 22.0433 34.0099 21.922C34.0099 21.7167 33.9165 21.474 33.7299 21.194C33.5525 20.9047 33.3705 20.732 33.1839 20.676H35.7319L38.7699 26.5L39.7639 21.74C39.7919 21.5813 39.8059 21.474 39.8059 21.418C39.8059 21.0447 39.6239 20.7973 39.2599 20.676H42.1019C41.6725 20.8253 41.4112 21.1613 41.3179 21.684L39.5119 30.056ZM41.1725 30C41.5738 29.888 41.8492 29.468 41.9985 28.74L43.4545 21.824C43.4825 21.6187 43.4965 21.4787 43.4965 21.404C43.4965 21.0213 43.3425 20.7787 43.0345 20.676H46.7585C47.9158 20.676 48.8398 21.0447 49.5305 21.782C50.2212 22.51 50.5665 23.504 50.5665 24.764C50.5665 25.6973 50.3472 26.57 49.9085 27.382C49.4792 28.1847 48.8632 28.824 48.0605 29.3C47.2672 29.7667 46.3478 30 45.3025 30H41.1725ZM45.2885 28.782C46.2032 28.782 46.9498 28.39 47.5285 27.606C48.1072 26.822 48.3965 25.828 48.3965 24.624C48.3965 23.7747 48.2285 23.1073 47.8925 22.622C47.5565 22.1367 47.0618 21.894 46.4085 21.894H45.4565L44.0145 28.782H45.2885ZM57.4681 23.35C57.2441 22.8367 56.9314 22.4493 56.5301 22.188C56.1381 21.9173 55.7321 21.782 55.3121 21.782C54.9294 21.782 54.6214 21.88 54.3881 22.076C54.1641 22.272 54.0521 22.552 54.0521 22.916C54.0521 23.2053 54.1781 23.49 54.4301 23.77C54.6914 24.0407 55.1161 24.3767 55.7041 24.778C56.8054 25.5247 57.3561 26.3553 57.3561 27.27C57.3561 28.138 57.0294 28.8473 56.3761 29.398C55.7227 29.9487 54.8361 30.224 53.7161 30.224C53.1747 30.224 52.6241 30.1447 52.0641 29.986C51.5134 29.818 51.0841 29.622 50.7761 29.398L51.3501 26.752C51.5554 27.48 51.8867 28.012 52.3441 28.348C52.8107 28.684 53.3241 28.852 53.8841 28.852C54.3134 28.852 54.6494 28.7447 54.8921 28.53C55.1347 28.306 55.2561 28.0167 55.2561 27.662C55.2561 27.382 55.1394 27.116 54.9061 26.864C54.6727 26.612 54.2574 26.2807 53.6601 25.87C52.5867 25.1513 52.0501 24.316 52.0501 23.364C52.0501 22.5427 52.3627 21.852 52.9881 21.292C53.6227 20.732 54.4441 20.452 55.4521 20.452C55.8907 20.452 56.3294 20.5173 56.7681 20.648C57.2067 20.7693 57.5941 20.9327 57.9301 21.138L57.4681 23.35Z" fill="#C79A3C"/>
</svg>
